<svg width="129" height="42" viewBox="0 0 129 42" fill="none" xmlns="http://www.w3.org/2000/svg">
<path d="M94.25 33.5738C91.077 33.5738 88.603 32.2668 87.016 29.8858V33.1058H80.434V1.00684H87.016V13.4078C88.603 11.0278 91.076 9.71984 94.251 9.71984C100.179 9.71984 104.894 15.0418 104.894 21.6228C104.894 28.2048 100.179 33.5728 94.251 33.5728L94.25 33.5738ZM92.757 15.9758C89.536 15.9758 87.016 18.4488 87.016 21.6228C87.016 24.8448 89.536 27.2708 92.756 27.2708C95.932 27.2708 98.499 24.7978 98.499 21.6228C98.499 18.4958 95.932 15.9758 92.757 15.9758Z" fill="#FCFCFA"/>
<path d="M128.078 10.1865L115.334 40.7155H108.286L112.533 31.2395L103.711 10.1865H110.806L115.894 23.5835L120.984 10.1865H128.078Z" fill="#FCFCFA"/>
<path d="M77.395 33.1068H70.813V1.00684H77.395V33.1068Z" fill="#FCFCFA"/>
<path d="M68.194 33.1068H61.986V30.2598C60.632 32.4998 58.485 33.5737 55.451 33.5737C51.39 33.5737 48.355 30.5397 48.355 26.7118C48.355 21.9037 52.603 19.3818 59.045 19.3818H61.985V18.8687C61.985 16.8147 60.212 15.0868 57.598 15.0868C55.124 15.0868 52.697 16.4417 51.436 18.0287L47.842 14.2008C49.849 11.5858 53.77 9.71875 57.598 9.71875C64.087 9.71875 68.194 13.5008 68.194 19.0088V33.1068ZM61.986 23.4907H58.718C55.824 23.4907 54.097 24.3777 54.097 26.1047C54.097 27.5047 55.217 28.4387 56.991 28.4387C59.885 28.4387 61.986 26.4788 61.986 24.1908V23.4907Z" fill="#FCFCFA"/>
<path d="M46.017 20.1298V33.1068H39.435V20.9698C39.435 17.9828 37.615 16.0218 34.907 16.0218C32.153 16.0218 30.379 17.9828 30.379 20.9698V33.1068H23.797V1.00684H30.379V13.1748C31.826 10.9808 33.973 9.71984 36.589 9.71984C42.469 9.71984 46.017 13.6418 46.017 20.1298Z" fill="#FCFCFA"/>
<path d="M21.21 32.8268C20.37 33.2468 19.062 33.4798 17.848 33.4798C12.48 33.4798 8.69901 30.0718 8.69901 24.1438V1.00684H15.281V10.1868H20.929V16.4418H15.281V23.8168C15.281 25.9648 16.914 27.3178 18.828 27.3178C19.482 27.3178 20.369 27.1788 20.882 26.9918L21.21 32.8268Z" fill="#FCFCFA"/>
<path d="M7.435 13.3137C7.43506 13.7858 7.34214 14.2533 7.16153 14.6895C6.98093 15.1257 6.71618 15.522 6.3824 15.8559C6.04862 16.1898 5.65234 16.4547 5.2162 16.6354C4.78006 16.8161 4.3126 16.9092 3.8405 16.9092C3.36839 16.9093 2.9009 16.8164 2.46471 16.6358C2.02852 16.4552 1.63217 16.1904 1.2983 15.8566C0.964427 15.5228 0.699566 15.1266 0.51884 14.6904C0.338113 14.2543 0.245061 13.7868 0.244995 13.3147C0.244995 12.3613 0.623753 11.4469 1.29795 10.7727C1.97214 10.0985 2.88654 9.71973 3.83999 9.71973C4.79345 9.71973 5.70785 10.0985 6.38204 10.7727C7.05624 11.4469 7.435 12.3613 7.435 13.3147V13.3137Z" fill="#CCCC33"/>
</svg>
